<mxfile host="app.diagrams.net" agent="Mozilla/5.0 (Windows NT 10.0; Win64; x64) AppleWebKit/537.36 (KHTML, like Gecko) Chrome/135.0.0.0 Safari/537.36" version="26.2.14">
  <diagram name="PÃ¡gina-1" id="Eob1nHVvj-2Yc_48pJiT">
    <mxGraphModel dx="1426" dy="777" grid="1" gridSize="10" guides="1" tooltips="1" connect="1" arrows="1" fold="1" page="1" pageScale="1" pageWidth="827" pageHeight="1169" math="0" shadow="0">
      <root>
        <mxCell id="0" />
        <mxCell id="1" parent="0" />
        <mxCell id="NJVN61zBS2t13ob9CDW7-2" value="" style="swimlane;startSize=0;" vertex="1" parent="1">
          <mxGeometry x="264" y="200" width="300" height="300" as="geometry" />
        </mxCell>
        <mxCell id="NJVN61zBS2t13ob9CDW7-3" value="Servidor" style="ellipse;whiteSpace=wrap;html=1;" vertex="1" parent="NJVN61zBS2t13ob9CDW7-2">
          <mxGeometry x="100" y="60" width="100" height="60" as="geometry" />
        </mxCell>
        <mxCell id="NJVN61zBS2t13ob9CDW7-5" value="Cliente 1" style="ellipse;whiteSpace=wrap;html=1;" vertex="1" parent="NJVN61zBS2t13ob9CDW7-2">
          <mxGeometry x="10" y="180" width="100" height="60" as="geometry" />
        </mxCell>
        <mxCell id="NJVN61zBS2t13ob9CDW7-4" value="Cliente 2" style="ellipse;whiteSpace=wrap;html=1;" vertex="1" parent="NJVN61zBS2t13ob9CDW7-2">
          <mxGeometry x="190" y="180" width="100" height="60" as="geometry" />
        </mxCell>
        <mxCell id="NJVN61zBS2t13ob9CDW7-8" value="Req" style="endArrow=classic;html=1;rounded=0;entryX=0;entryY=1;entryDx=0;entryDy=0;exitX=0.5;exitY=0;exitDx=0;exitDy=0;" edge="1" parent="NJVN61zBS2t13ob9CDW7-2" source="NJVN61zBS2t13ob9CDW7-5" target="NJVN61zBS2t13ob9CDW7-3">
          <mxGeometry x="-0.0604" y="12" width="50" height="50" relative="1" as="geometry">
            <mxPoint x="160" y="330" as="sourcePoint" />
            <mxPoint x="210" y="280" as="targetPoint" />
            <mxPoint as="offset" />
          </mxGeometry>
        </mxCell>
        <mxCell id="NJVN61zBS2t13ob9CDW7-6" value="Rep" style="endArrow=classic;html=1;rounded=0;exitX=0.25;exitY=0.983;exitDx=0;exitDy=0;exitPerimeter=0;entryX=0.67;entryY=-0.017;entryDx=0;entryDy=0;entryPerimeter=0;" edge="1" parent="NJVN61zBS2t13ob9CDW7-2" source="NJVN61zBS2t13ob9CDW7-3" target="NJVN61zBS2t13ob9CDW7-5">
          <mxGeometry x="-0.0199" y="19" width="50" height="50" relative="1" as="geometry">
            <mxPoint x="140" y="310" as="sourcePoint" />
            <mxPoint x="190" y="260" as="targetPoint" />
            <mxPoint y="-1" as="offset" />
          </mxGeometry>
        </mxCell>
        <mxCell id="NJVN61zBS2t13ob9CDW7-10" value="Push" style="rounded=0;orthogonalLoop=1;jettySize=auto;html=1;exitX=1;exitY=1;exitDx=0;exitDy=0;entryX=0.5;entryY=0;entryDx=0;entryDy=0;startArrow=classic;startFill=1;endArrow=none;" edge="1" parent="NJVN61zBS2t13ob9CDW7-2" source="NJVN61zBS2t13ob9CDW7-3" target="NJVN61zBS2t13ob9CDW7-4">
          <mxGeometry x="0.0887" y="14" relative="1" as="geometry">
            <mxPoint as="offset" />
          </mxGeometry>
        </mxCell>
      </root>
    </mxGraphModel>
  </diagram>
</mxfile>
